<svg viewBox="0 0 809 112" xmlns="http://www.w3.org/2000/svg">
    <path d="M76.52 5.84C73.48 14.64 70.56 22.8 67.76 30.32C65.04 37.76 62.36 44.84 59.72 51.56C57.08 58.28 54.44 64.72 51.8 70.88C49.24 76.96 46.6 83 43.88 89H32.96C30.24 83 27.56 76.96 24.92 70.88C22.36 64.72 19.72 58.28 17 51.56C14.36 44.84 11.64 37.76 8.84001 30.32C6.04001 22.8 3.16001 14.64 0.200012 5.84H13.04C17.36 18.48 21.6 30.64 25.76 42.32C29.92 54 34.2 64.96 38.6 75.2C43 65.04 47.28 54.12 51.44 42.44C55.6 30.68 59.8 18.48 64.04 5.84H76.52Z" fill="#2155B5"/>
    <path d="M78.4794 57.92C78.4794 52.4 79.2794 47.6 80.8794 43.52C82.4794 39.36 84.5994 35.92 87.2394 33.2C89.8794 30.48 92.9194 28.44 96.3594 27.08C99.7994 25.72 103.319 25.04 106.919 25.04C115.319 25.04 121.759 27.68 126.239 32.96C130.719 38.16 132.959 46.12 132.959 56.84C132.959 57.32 132.959 57.96 132.959 58.76C132.959 59.48 132.919 60.16 132.839 60.8H90.1194C90.5994 67.28 92.4794 72.2 95.7594 75.56C99.0394 78.92 104.159 80.6 111.119 80.6C115.039 80.6 118.319 80.28 120.959 79.64C123.679 78.92 125.719 78.24 127.079 77.6L128.639 86.96C127.279 87.68 124.879 88.44 121.439 89.24C118.079 90.04 114.239 90.44 109.919 90.44C104.479 90.44 99.7594 89.64 95.7594 88.04C91.8394 86.36 88.5994 84.08 86.0394 81.2C83.4794 78.32 81.5594 74.92 80.2794 71C79.0794 67 78.4794 62.64 78.4794 57.92ZM121.319 51.8C121.399 46.76 120.119 42.64 117.479 39.44C114.919 36.16 111.359 34.52 106.799 34.52C104.239 34.52 101.959 35.04 99.9594 36.08C98.0394 37.04 96.3994 38.32 95.0394 39.92C93.6794 41.52 92.5994 43.36 91.7994 45.44C91.0794 47.52 90.5994 49.64 90.3594 51.8H121.319Z" fill="#2155B5"/>
    <path d="M172.031 25.28C172.991 25.28 174.071 25.36 175.271 25.52C176.551 25.6 177.791 25.76 178.991 26C180.191 26.16 181.271 26.36 182.231 26.6C183.271 26.76 184.031 26.92 184.511 27.08L182.591 36.8C181.711 36.48 180.231 36.12 178.151 35.72C176.151 35.24 173.551 35 170.351 35C168.271 35 166.191 35.24 164.111 35.72C162.111 36.12 160.791 36.4 160.151 36.56V89H148.991V29.24C151.631 28.28 154.911 27.4 158.831 26.6C162.751 25.72 167.151 25.28 172.031 25.28Z" fill="#2155B5"/>
    <path d="M248.506 89C246.266 83.24 243.866 76.68 241.306 69.32C238.826 61.88 236.546 54.16 234.466 46.16C232.386 54.16 230.106 61.88 227.626 69.32C225.146 76.68 222.786 83.24 220.546 89H210.826C207.146 80.76 203.546 71.36 200.026 60.8C196.506 50.24 193.186 38.84 190.066 26.6H202.066C202.866 30.36 203.826 34.44 204.946 38.84C206.066 43.24 207.226 47.64 208.426 52.04C209.706 56.44 211.026 60.68 212.386 64.76C213.746 68.84 215.026 72.4 216.226 75.44C217.586 71.68 218.906 67.72 220.186 63.56C221.546 59.32 222.826 55.08 224.026 50.84C225.226 46.52 226.346 42.32 227.386 38.24C228.506 34.08 229.466 30.2 230.266 26.6H239.506C240.226 30.2 241.106 34.08 242.146 38.24C243.186 42.32 244.306 46.52 245.506 50.84C246.706 55.08 247.946 59.32 249.226 63.56C250.586 67.72 251.946 71.68 253.306 75.44C254.506 72.4 255.746 68.84 257.026 64.76C258.386 60.68 259.706 56.44 260.986 52.04C262.266 47.64 263.466 43.24 264.586 38.84C265.706 34.44 266.666 30.36 267.466 26.6H278.986C275.866 38.84 272.546 50.24 269.026 60.8C265.506 71.36 261.906 80.76 258.226 89H248.506Z" fill="#2155B5"/>
    <path d="M311.908 80.96C314.548 80.96 316.867 80.92 318.867 80.84C320.947 80.68 322.667 80.44 324.027 80.12V61.52C323.227 61.12 321.908 60.8 320.068 60.56C318.308 60.24 316.147 60.08 313.587 60.08C311.907 60.08 310.108 60.2 308.188 60.44C306.347 60.68 304.627 61.2 303.027 62C301.507 62.72 300.227 63.76 299.188 65.12C298.148 66.4 297.628 68.12 297.628 70.28C297.628 74.28 298.907 77.08 301.467 78.68C304.027 80.2 307.508 80.96 311.908 80.96ZM310.948 25.04C315.428 25.04 319.188 25.64 322.228 26.84C325.348 27.96 327.828 29.6 329.668 31.76C331.588 33.84 332.947 36.36 333.747 39.32C334.547 42.2 334.948 45.4 334.948 48.92V87.92C333.988 88.08 332.627 88.32 330.867 88.64C329.187 88.88 327.268 89.12 325.108 89.36C322.948 89.6 320.587 89.8 318.027 89.96C315.547 90.2 313.067 90.32 310.587 90.32C307.067 90.32 303.827 89.96 300.867 89.24C297.907 88.52 295.348 87.4 293.188 85.88C291.028 84.28 289.347 82.2 288.147 79.64C286.947 77.08 286.348 74 286.348 70.4C286.348 66.96 287.028 64 288.388 61.52C289.828 59.04 291.747 57.04 294.147 55.52C296.547 54 299.347 52.88 302.547 52.16C305.747 51.44 309.108 51.08 312.628 51.08C313.748 51.08 314.908 51.16 316.108 51.32C317.308 51.4 318.428 51.56 319.467 51.8C320.587 51.96 321.548 52.12 322.348 52.28C323.148 52.44 323.707 52.56 324.027 52.64V49.52C324.027 47.68 323.827 45.88 323.427 44.12C323.027 42.28 322.308 40.68 321.268 39.32C320.228 37.88 318.788 36.76 316.948 35.96C315.188 35.08 312.867 34.64 309.987 34.64C306.307 34.64 303.067 34.92 300.267 35.48C297.547 35.96 295.507 36.48 294.147 37.04L292.828 27.8C294.268 27.16 296.667 26.56 300.027 26C303.387 25.36 307.028 25.04 310.948 25.04Z" fill="#2155B5"/>
    <path d="M376.523 25.28C377.483 25.28 378.563 25.36 379.763 25.52C381.043 25.6 382.283 25.76 383.483 26C384.683 26.16 385.763 26.36 386.723 26.6C387.763 26.76 388.523 26.92 389.003 27.08L387.083 36.8C386.203 36.48 384.723 36.12 382.643 35.72C380.643 35.24 378.043 35 374.843 35C372.763 35 370.683 35.24 368.603 35.72C366.603 36.12 365.283 36.4 364.643 36.56V89H353.483V29.24C356.123 28.28 359.403 27.4 363.323 26.6C367.243 25.72 371.643 25.28 376.523 25.28Z" fill="#2155B5"/>
    <path d="M399.772 28.4C402.332 27.76 405.692 27.08 409.852 26.36C414.092 25.64 418.972 25.28 424.492 25.28C428.492 25.28 431.852 25.84 434.572 26.96C437.292 28 439.572 29.56 441.412 31.64C441.972 31.24 442.852 30.68 444.052 29.96C445.252 29.24 446.732 28.56 448.492 27.92C450.252 27.2 452.212 26.6 454.372 26.12C456.532 25.56 458.852 25.28 461.332 25.28C466.132 25.28 470.052 26 473.092 27.44C476.132 28.8 478.492 30.76 480.172 33.32C481.932 35.88 483.092 38.92 483.652 42.44C484.292 45.96 484.612 49.8 484.612 53.96V89H473.452V56.36C473.452 52.68 473.252 49.52 472.852 46.88C472.532 44.24 471.852 42.04 470.812 40.28C469.852 38.52 468.492 37.24 466.732 36.44C465.052 35.56 462.852 35.12 460.132 35.12C456.372 35.12 453.252 35.64 450.772 36.68C448.372 37.64 446.732 38.52 445.852 39.32C446.492 41.4 446.972 43.68 447.292 46.16C447.612 48.64 447.772 51.24 447.772 53.96V89H436.612V56.36C436.612 52.68 436.412 49.52 436.012 46.88C435.612 44.24 434.892 42.04 433.852 40.28C432.892 38.52 431.532 37.24 429.772 36.44C428.092 35.56 425.932 35.12 423.292 35.12C422.172 35.12 420.972 35.16 419.692 35.24C418.412 35.32 417.172 35.44 415.972 35.6C414.852 35.68 413.812 35.8 412.852 35.96C411.892 36.12 411.252 36.24 410.932 36.32V89H399.772V28.4Z" fill="#2155B5"/>
    <path d="M514.291 89H503.131V26.6H514.291V89ZM508.651 15.32C506.651 15.32 504.931 14.68 503.491 13.4C502.131 12.04 501.451 10.24 501.451 8C501.451 5.76 502.131 4 503.491 2.72C504.931 1.35999 506.651 0.679993 508.651 0.679993C510.651 0.679993 512.331 1.35999 513.691 2.72C515.131 4 515.851 5.76 515.851 8C515.851 10.24 515.131 12.04 513.691 13.4C512.331 14.68 510.651 15.32 508.651 15.32Z" fill="#2155B5"/>
    <path d="M533.483 28.4C536.043 27.76 539.443 27.08 543.683 26.36C547.923 25.64 552.803 25.28 558.323 25.28C563.283 25.28 567.403 26 570.683 27.44C573.963 28.8 576.563 30.76 578.483 33.32C580.483 35.8 581.883 38.8 582.683 42.32C583.483 45.84 583.883 49.72 583.883 53.96V89H572.723V56.36C572.723 52.52 572.443 49.24 571.883 46.52C571.403 43.8 570.563 41.6 569.363 39.92C568.163 38.24 566.563 37.04 564.563 36.32C562.563 35.52 560.083 35.12 557.123 35.12C555.923 35.12 554.683 35.16 553.403 35.24C552.123 35.32 550.883 35.44 549.683 35.6C548.563 35.68 547.523 35.8 546.563 35.96C545.683 36.12 545.043 36.24 544.643 36.32V89H533.483V28.4Z" fill="#2155B5"/>
    <path d="M641.509 82.76C640.549 83.4 638.669 84.24 635.869 85.28C633.149 86.24 629.949 86.72 626.269 86.72C622.509 86.72 618.949 86.12 615.589 84.92C612.309 83.72 609.429 81.88 606.949 79.4C604.469 76.84 602.509 73.68 601.069 69.92C599.629 66.16 598.909 61.68 598.909 56.48C598.909 51.92 599.589 47.76 600.949 44C602.309 40.16 604.269 36.88 606.829 34.16C609.469 31.36 612.669 29.2 616.429 27.68C620.189 26.08 624.429 25.28 629.149 25.28C634.349 25.28 638.869 25.68 642.709 26.48C646.629 27.2 649.909 27.88 652.549 28.52V84.2C652.549 93.8 650.069 100.76 645.109 105.08C640.149 109.4 632.629 111.56 622.549 111.56C618.629 111.56 614.909 111.24 611.389 110.6C607.949 109.96 604.949 109.2 602.389 108.32L604.429 98.6C606.669 99.48 609.389 100.24 612.589 100.88C615.869 101.6 619.269 101.96 622.789 101.96C629.429 101.96 634.189 100.64 637.069 98C640.029 95.36 641.509 91.16 641.509 85.4V82.76ZM641.389 36.44C640.269 36.12 638.749 35.84 636.829 35.6C634.989 35.28 632.469 35.12 629.269 35.12C623.269 35.12 618.629 37.08 615.349 41C612.149 44.92 610.549 50.12 610.549 56.6C610.549 60.2 610.989 63.28 611.869 65.84C612.829 68.4 614.069 70.52 615.589 72.2C617.189 73.88 618.989 75.12 620.989 75.92C623.069 76.72 625.189 77.12 627.349 77.12C630.309 77.12 633.029 76.72 635.509 75.92C637.989 75.04 639.949 74.04 641.389 72.92V36.44Z" fill="#2155B5"/>
    <path d="M729.484 89C727.724 86.04 725.684 82.72 723.364 79.04C721.124 75.36 718.684 71.56 716.044 67.64C713.404 63.64 710.644 59.6 707.764 55.52C704.964 51.44 702.164 47.52 699.364 43.76C696.564 39.92 693.844 36.32 691.204 32.96C688.564 29.6 686.124 26.64 683.884 24.08V89H672.484V5.84H681.724C685.484 9.84 689.484 14.52 693.724 19.88C698.044 25.16 702.284 30.64 706.444 36.32C710.684 41.92 714.644 47.44 718.324 52.88C722.084 58.32 725.244 63.16 727.804 67.4V5.84H739.204V89H729.484Z" fill="#F07D26"/>
    <path d="M808.749 87.2C806.189 87.84 802.789 88.52 798.549 89.24C794.389 89.96 789.549 90.32 784.029 90.32C779.229 90.32 775.189 89.64 771.909 88.28C768.629 86.84 765.989 84.84 763.989 82.28C761.989 79.72 760.549 76.72 759.669 73.28C758.789 69.76 758.349 65.88 758.349 61.64V26.6H769.509V59.24C769.509 66.84 770.709 72.28 773.109 75.56C775.509 78.84 779.549 80.48 785.229 80.48C786.429 80.48 787.669 80.44 788.949 80.36C790.229 80.28 791.429 80.2 792.549 80.12C793.669 79.96 794.669 79.84 795.549 79.76C796.509 79.6 797.189 79.44 797.589 79.28V26.6H808.749V87.2Z" fill="#F07D26"/>
</svg>
